#!OML:ASF \\sashay\E\basketball\basketball\Project 1\Capture day 1\Session 1\Subject.ASF
:FULLY-SPECIFIED
:DEGREES
228
root -33.9588 15.1683 0.493825 -177.482 80.4576 -172.665
lowerback 9.3205 -1.2585 -9.61043
upperback 6.57263 -2.02032 -0.870825
thorax 2.02302 -1.1872 4.62379
lowerneck -7.55826 -10.0195 -17.5805
upperneck -5.43792 -11.8248 18.6304
head 1.92192 -5.44917 7.94187
rclavicle 2.127e-014 2.70347e-014
rhumerus 36.2479 6.5264 -84.1597
rradius 108.282
rwrist -2.83937
rhand -42.5907 74.9713
rfingers 7.12502
rthumb -15.4642 45.5699
lclavicle 2.127e-014 2.70347e-014
lhumerus 80.0132 -14.1042 46.9751
lradius 84.309
lwrist 12.5902
lhand -19.9925 31.4671
lfingers 7.12502
lthumb 6.34705 61.352
rfemur -19.9547 -8.64862 12.5736
rtibia 50.5516
rfoot -16.8219 -6.89631
rtoes -43.1013
lfemur -4.86507 2.01721 -8.4762
ltibia 47.3442
lfoot -20.8261 0.593837
ltoes -19.1946
229
root -33.9447 15.1359 0.482037 -178.582 80.5473 -173.732
lowerback 9.37201 -1.12277 -9.4647
upperback 6.01271 -1.90291 -1.02278
thorax 1.36471 -1.08583 4.38885
lowerneck -5.99485 -9.82997 -18.0066
upperneck -5.35422 -11.8284 18.7695
head 1.72981 -5.53325 8.12133
rclavicle 1.17283e-014 -1.74931e-014
rhumerus 37.4185 5.63026 -84.2489
rradius 107.408
rwrist -3.06868
rhand -42.4634 75.4508
rfingers 7.12502
rthumb -15.3416 46.0399
lclavicle 1.17283e-014 -1.74931e-014
lhumerus 81.163 -13.9237 46.7522
lradius 83.1382
lwrist 13.3554
lhand -19.5911 32.9039
lfingers 7.12502
lthumb 6.73452 62.7768
rfemur -19.3026 -8.49107 12.2391
rtibia 50.5555
rfoot -17.4644 -7.05096
rtoes -42.3369
lfemur -4.67819 2.23563 -8.5627
ltibia 47.2193
lfoot -20.8967 -0.162935
ltoes -17.2608
230
root -33.9181 15.1642 0.470872 -178.28 80.6235 -173.443
lowerback 8.85821 -1.17515 -9.44652
upperback 6.21454 -1.89855 -0.900452
thorax 1.86522 -1.1136 4.48732
lowerneck -6.43272 -9.88056 -18.4202
upperneck -5.02484 -11.8389 18.8782
head 1.93067 -5.51075 8.19524
rclavicle -6.95746e-015 -7.95139e-016
rhumerus 40.0384 5.16349 -84.0388
rradius 106.369
rwrist -3.27658
rhand -42.5579 76.0917
rfingers 7.12502
rthumb -15.4326 46.6878
lclavicle -6.95746e-015 -7.95139e-016
lhumerus 82.7893 -12.5465 46.6429
lradius 82.2494
lwrist 13.9329
lhand -21.381 24.5875
lfingers 7.12502
lthumb 5.00646 54.5083
rfemur -19.5266 -8.4607 12.3791
rtibia 50.5222
rfoot -17.3373 -6.96027
rtoes -41.7941
lfemur -4.34183 2.49932 -8.42996
ltibia 46.8037
lfoot -20.7906 -0.570483
ltoes -15.5526
231
root -33.9046 15.1482 0.461785 -178.307 80.734 -173.448
lowerback 10.332 -0.956029 -9.6669
upperback 4.75319 -1.95201 -0.572139
thorax -0.464692 -1.02491 5.03431
lowerneck -5.27936 -9.62099 -19.0886
upperneck -3.85177 -11.7979 18.3891
head 2.06815 -5.56175 8.17567
rclavicle 3.8763e-014 2.94201e-014
rhumerus 39.9979 5.01534 -83.6434
rradius 105.348
rwrist -3.58138
rhand -42.6527 76.7694
rfingers 7.12502
rthumb -15.5239 47.3725
lclavicle 3.8763e-014 2.94201e-014
lhumerus 82.5661 -12.9292 47.3854
lradius 81.1486
lwrist 14.2712
lhand -21.9656 24.8575
lfingers 7.12502
lthumb 4.44197 54.7909
rfemur -19.2356 -8.08734 12.3212
rtibia 50.5614
rfoot -17.7963 -6.77759
rtoes -39.9687
lfemur -4.13452 2.79303 -8.32633
ltibia 46.6444
lfoot -20.7686 -0.939493
ltoes -14.5894
232
root -33.8888 15.135 0.447502 -178.905 80.7399 -173.949
lowerback 9.88689 -0.906991 -9.4762
upperback 4.86055 -1.81317 -0.654214
thorax -0.140905 -0.969671 4.81311
lowerneck -4.67607 -9.65151 -19.4943
upperneck -4.02565 -11.9181 18.5725
head 1.98033 -5.64714 8.31837
rclavicle 3.63776e-014 1.03368e-014
rhumerus 42.0857 4.38964 -83.5633
rradius 104.332
rwrist -3.83015
rhand -42.7123 77.401
rfingers 7.12502
rthumb -15.5812 48.0086
lclavicle 3.63776e-014 1.03368e-014
lhumerus 84.1636 -12.0404 47.3014
lradius 79.8878
lwrist 14.7851
lhand -22.3333 23.8824
lfingers 7.12502
lthumb 4.0869 53.8229
rfemur -18.9775 -8.01447 12.1932
rtibia 50.5293
rfoot -17.7971 -7.09969
rtoes -40.0953
lfemur -3.75565 2.90507 -8.31952
ltibia 46.353
lfoot -20.7042 -1.97166
ltoes -9.73764
233
root -33.8708 15.1347 0.430789 -179.087 80.6377 -174.037
lowerback 10.4688 -0.807289 -9.14102
upperback 4.16831 -1.78654 -0.765375
thorax -1.21592 -0.890616 4.53557
lowerneck -3.73856 -9.57535 -19.6586
upperneck -3.50097 -12.0455 18.3871
head 1.99479 -5.76549 8.30371
rclavicle -1.69961e-014 7.95139e-015
rhumerus 42.7922 3.86878 -83.6331
rradius 103.471
rwrist -4.03032
rhand -42.7327 77.7922
rfingers 7.12502
rthumb -15.6009 48.4014
lclavicle -1.69961e-014 7.95139e-015
lhumerus 84.916 -11.9353 47.1946
lradius 78.5787
lwrist 15.438
lhand -22.8401 22.7943
lfingers 7.12502
lthumb 3.59754 52.7436
rfemur -18.7122 -7.94669 12.1234
rtibia 50.4164
rfoot -17.6068 -7.31292
rtoes -40.3706
lfemur -3.47722 2.99841 -8.26873
ltibia 46.1931
lfoot -20.6808 -2.67832
ltoes -7.07943
